rec1_001.mot
nRows=17
nColumns=19

name rec1_001.mot
datacolumns 19
datarows 17
range 5.0020390818 5.0340394031
endheader
time	ground_force_vx	ground_force_vy	ground_force_vz	ground_force_px	ground_force_py	ground_force_pz	1_ground_force_vx	1_ground_force_vy	1_ground_force_vz	1_ground_force_px	1_ground_force_py	1_ground_force_pz	ground_torque_x	ground_torque_y	ground_torque_z	1_ground_torque_x	1_ground_torque_y	1_ground_torque_z	
        5.0020390818	      132.3399286511	      509.6262631037	      -20.5628325629	       -0.7000000000	       -0.0180000000	        0.5600000000	      -63.5346464192	      524.7461047037	      -10.7376415757	       -0.7000000000	       -0.0180000000	       -0.5600000000	      241.8198300440	      -38.8261690369	      367.0259574188	     -234.1621238216	      -12.1485239518	      620.7266052398	
        5.0040387770	      131.6304227952	      494.4568778819	      -19.3895859850	       -0.7000000000	       -0.0180000000	        0.5600000000	      -64.4157440982	      526.2492478715	       -8.4106085978	       -0.7000000000	       -0.0180000000	       -0.5600000000	      234.6580540562	      -39.0424672983	      355.1058227371	     -234.6148538426	      -15.3240068044	      621.7600822606	
        5.0060391920	      130.6153779678	      478.8969866799	      -18.1556121914	       -0.7000000000	       -0.0180000000	        0.5600000000	      -65.1157959589	      527.2844266822	       -6.0084591432	       -0.7000000000	       -0.0180000000	       -0.5600000000	      227.3067826008	      -39.1908206753	      342.9738613410	     -234.8479132072	      -18.5075299651	      622.2061949275	
        5.0080388471	      129.2798628521	      462.9906444785	      -16.8599645914	       -0.7000000000	       -0.0180000000	        0.5600000000	      -65.6640905180	      527.8906159542	       -3.5541704191	       -0.7000000000	       -0.0180000000	       -0.5600000000	      219.7875567711	      -39.2689846489	      330.6644611489	     -234.8808809818	      -21.6836121298	      622.1148685185	
        5.0100391021	      127.6126231299	      446.7852420455	      -15.5051406601	       -0.7000000000	       -0.0180000000	        0.5600000000	      -66.0907602620	      528.1154294839	       -1.0668663861	       -0.7000000000	       -0.0180000000	       -0.5600000000	      212.1233641496	      -39.2727613650	      318.2141254767	     -234.7371297716	      -24.8418517885	      621.5462198165	
        5.0120389172	      125.6067072236	      430.3302378367	      -14.0969456323	       -0.7000000000	       -0.0180000000	        0.5600000000	      -66.4258934298	      528.0162456460	        1.4384598305	       -0.7000000000	       -0.0180000000	       -0.5600000000	      204.3380949756	      -39.1970440566	      305.6602191558	     -234.4442715617	      -27.9769428679	      620.5714981293	
        5.0140391324	      123.2599554651	      413.6759530797	      -12.6442891820	       -0.7000000000	       -0.0180000000	        0.5600000000	      -66.6987895206	      527.6609649798	        3.9507524258	       -0.7000000000	       -0.0180000000	       -0.5600000000	      196.4560401128	      -39.0365218508	      293.0396083429	     -234.0343387155	      -31.0882352314	      619.2739968827	
        5.0160389875	      120.5755706986	      396.8727654911	      -11.1589325422	       -0.7000000000	       -0.0180000000	        0.5600000000	      -66.9374591006	      527.1280657210	        6.4623791604	       -0.7000000000	       -0.0180000000	       -0.5600000000	      188.5015212099	      -38.7858855964	      280.3878377810	     -233.5436354159	      -34.1790164926	      617.7494872142	
        5.0180391625	      117.5628359243	      379.9707631939	       -9.6551101308	       -0.7000000000	       -0.0180000000	        0.5600000000	      -67.1684057503	      526.5057017024	        8.9684544344	       -0.7000000000	       -0.0180000000	       -0.5600000000	      180.4986798600	      -38.4401516413	      267.7391888853	     -233.0122744076	      -37.2556133201	      616.1054596435	
        5.0200390977	      114.2377412816	      363.0198468744	       -8.1489347855	       -0.7000000000	       -0.0180000000	        0.5600000000	      -67.4165991607	      525.8898155407	       11.4660983901	       -0.7000000000	       -0.0180000000	       -0.5600000000	      172.4714057301	      -37.9949283406	      255.1274899999	     -232.4833879682	      -40.3263548168	      614.4588176058	
        5.0220391928	      110.6231801036	      346.0700414914	       -6.6576284520	       -0.7000000000	       -0.0180000000	        0.5600000000	      -67.7053887729	      525.3813640635	       13.9536867365	       -0.7000000000	       -0.0180000000	       -0.5600000000	      164.4433223607	      -37.4469413254	      242.5870451791	     -232.0019776758	      -43.4003850548	      612.9321581668	
        5.0240389277	      106.7484914360	      329.1714168586	       -5.1986976287	       -0.7000000000	       -0.0180000000	        0.5600000000	      -68.0560549403	      525.0829750539	       16.4302090688	       -0.7000000000	       -0.0180000000	       -0.5600000000	      156.4376818785	      -36.7950626395	      230.1527218608	     -231.6135230473	      -46.4864033282	      611.6493577376	
        5.0260392629	      102.6483230238	      312.3733584765	       -3.7891872879	       -0.7000000000	       -0.0180000000	        0.5600000000	      -68.4869040693	      525.0954151223	       18.8948636082	       -0.7000000000	       -0.0180000000	       -0.5600000000	      148.4771264668	      -36.0410818046	      217.8588826895	     -231.3625411015	      -49.5915051333	      610.7312313291	
        5.0280390379	       98.3610047284	      295.7236906598	       -2.4451664839	       -0.7000000000	       -0.0180000000	        0.5600000000	      -69.0121561096	      525.5139892947	       21.3466810013	       -0.7000000000	       -0.0180000000	       -0.5600000000	      140.5834640120	      -35.1896800250	      205.7379804160	     -231.2910885957	      -52.7201341682	      610.2914378323	
        5.0300392531	       93.9268013410	      279.2683213959	       -1.1815070979	       -0.7000000000	       -0.0180000000	        0.5600000000	      -69.6410393936	      526.4249178688	       23.7839663475	       -0.7000000000	       -0.0180000000	       -0.5600000000	      132.7776082591	      -34.2473941254	      193.8199338568	     -231.4372004435	      -55.8731585827	      610.4324742339	
        5.0320390281	       89.3863773779	      263.0515073357	       -0.0119064559	       -0.7000000000	       -0.0180000000	        0.5600000000	      -70.3773823988	      527.9018633929	       26.2035718612	       -0.7000000000	       -0.0180000000	       -0.5600000000	      125.0796929768	      -33.2210880214	      182.1326069352	     -231.8334179734	      -59.0471059783	      611.2416792817	
        5.0340394031	       84.7795630686	      247.1162984686	        1.0509618054	       -0.7000000000	       -0.0180000000	        0.5600000000	      -71.2197104605	      530.0028349964	       28.6000449923	       -0.7000000000	       -0.0180000000	       -0.5600000000	      117.5092568612	      -32.1174212857	      170.7028028303	     -232.5055400200	      -62.2334883622	      612.7874234389	
